<svg xmlns="http://www.w3.org/2000/svg" viewBox="0 0 64 64" role="img" aria-label="EMBUR">
  <defs>
    <linearGradient id="ember" x1="9" y1="52" x2="55" y2="10" gradientUnits="userSpaceOnUse">
      <stop stop-color="#FF6A00"/>
      <stop offset=".55" stop-color="#FF9A00"/>
      <stop offset="1" stop-color="#FFD33D"/>
    </linearGradient>
  </defs>
  <rect width="64" height="64" rx="14" fill="#050505"/>
  <path fill="url(#ember)" d="M14 17.8c1-4.1 4.1-6.6 8.4-7.2L54 6c-.8 6.8-4.5 10.6-11 11.6l-29 4.3v-4.1Z"/>
  <path fill="url(#ember)" d="M12.8 29.4c.9-4.2 4.1-6.8 8.7-7.5L51 17.6c-.7 6.6-4.1 10.3-10.2 11.3l-14.4 2.2c-2.6.4-4.3 1.8-5 4.3l-1.2 4.4-9.4 1.4 2-11.8Z"/>
  <path fill="url(#ember)" d="M10.5 42.4 48 36.8c-.9 7.5-5 11.7-12.2 12.8l-18.9 2.8c-5.8.9-8.8-2.4-7.8-7.9l1.4-2.1Z"/>
</svg>
